<?xml version="1.0" encoding="UTF-8" standalone="no"?>
<svg
   xmlns:dc="http://purl.org/dc/elements/1.1/"
   xmlns:cc="http://creativecommons.org/ns#"
   xmlns:rdf="http://www.w3.org/1999/02/22-rdf-syntax-ns#"
   xmlns:svg="http://www.w3.org/2000/svg"
   xmlns="http://www.w3.org/2000/svg"
   xmlns:sodipodi="http://sodipodi.sourceforge.net/DTD/sodipodi-0.dtd"
   xmlns:inkscape="http://www.inkscape.org/namespaces/inkscape"
   width="110.0323mm"
   height="40.837162mm"
   viewBox="0 0 110.0323 40.837162"
   version="1.1"
   id="svg1434"
   inkscape:version="1.0.1 (3bc2e813f5, 2020-09-07)"
   sodipodi:docname="bun_bottom.svg">
  <style
     id="style1436"></style>
  <defs
     id="defs1428" />
  <sodipodi:namedview
     id="base"
     pagecolor="#ffffff"
     bordercolor="#666666"
     borderopacity="1.0"
     inkscape:pageopacity="0.0"
     inkscape:pageshadow="2"
     inkscape:zoom="0.35"
     inkscape:cx="59.363637"
     inkscape:cy="265.74402"
     inkscape:document-units="mm"
     inkscape:current-layer="layer1"
     inkscape:document-rotation="0"
     showgrid="false"
     fit-margin-top="0"
     fit-margin-left="0"
     fit-margin-right="0"
     fit-margin-bottom="0"
     inkscape:window-width="1560"
     inkscape:window-height="1040"
     inkscape:window-x="130"
     inkscape:window-y="0"
     inkscape:window-maximized="0" />
  <metadata
     id="metadata1431">
    <rdf:RDF>
      <cc:Work
         rdf:about="">
        <dc:format>image/svg+xml</dc:format>
        <dc:type
           rdf:resource="http://purl.org/dc/dcmitype/StillImage" />
        <dc:title></dc:title>
      </cc:Work>
    </rdf:RDF>
  </metadata>
  <g
     inkscape:label="Warstwa 1"
     inkscape:groupmode="layer"
     id="layer1"
     transform="translate(-90.126704,-77.855229)">
    <g
       id="g1342"
       transform="matrix(1,0,0,0.63011788,-279.26492,-87.143524)">
      <path
         id="path990-2-0"
         style="fill:#ffa100;fill-opacity:1;stroke:none;stroke-width:0.623684"
         d="m 424.34244,276.67025 c -10.12058,0.004 -20.04149,0.911 -28.6706,2.62104 h -26.26405 v 29.5858 c -10e-6,0.007 -10e-6,0.0145 0,0.0217 v 0.68884 l 0.0439,2.84929 c 0.14978,9.72149 25.43542,14.22567 54.95631,14.22563 29.5207,-4e-5 53.7764,-7.53634 54.95584,-17.07491 h 0.0439 v -0.71056 c 1e-5,-0.007 1e-5,-0.0141 0,-0.0212 v -29.56465 h -26.26249 c -8.64843,-1.71387 -18.59404,-2.62098 -28.73727,-2.62104 h -0.0656 z"
         sodipodi:nodetypes="scccccssccccccscs" />
      <ellipse
         style="fill:#fff6d5;stroke:none;stroke-width:0.623774"
         id="path990-5"
         cx="424.40778"
         cy="-279.63928"
         rx="55.016151"
         ry="17.785496"
         transform="scale(1,-1)" />
    </g>
  </g>
</svg>
