<?xml version="1.0" encoding="UTF-8" standalone="no"?>
<svg
   xmlns:dc="http://purl.org/dc/elements/1.1/"
   xmlns:cc="http://creativecommons.org/ns#"
   xmlns:rdf="http://www.w3.org/1999/02/22-rdf-syntax-ns#"
   xmlns:svg="http://www.w3.org/2000/svg"
   xmlns="http://www.w3.org/2000/svg"
   xmlns:sodipodi="http://sodipodi.sourceforge.net/DTD/sodipodi-0.dtd"
   xmlns:inkscape="http://www.inkscape.org/namespaces/inkscape"
   width="111.05444mm"
   height="43.10743mm"
   viewBox="0 0 111.05444 43.10743"
   version="1.1"
   id="svg1033"
   inkscape:version="1.0.1 (3bc2e813f5, 2020-09-07)"
   sodipodi:docname="bun_top.svg">
  <style
     id="style1035"></style>
  <defs
     id="defs1027" />
  <sodipodi:namedview
     id="base"
     pagecolor="#ffffff"
     bordercolor="#666666"
     borderopacity="1.0"
     inkscape:pageopacity="0.0"
     inkscape:pageshadow="2"
     inkscape:zoom="0.35"
     inkscape:cx="882.72385"
     inkscape:cy="547.17716"
     inkscape:document-units="mm"
     inkscape:current-layer="layer1"
     inkscape:document-rotation="0"
     showgrid="false"
     showguides="false"
     fit-margin-top="0"
     fit-margin-left="0"
     fit-margin-right="0"
     fit-margin-bottom="0"
     inkscape:window-width="1560"
     inkscape:window-height="1040"
     inkscape:window-x="52"
     inkscape:window-y="0"
     inkscape:window-maximized="0" />
  <metadata
     id="metadata1030">
    <rdf:RDF>
      <cc:Work
         rdf:about="">
        <dc:format>image/svg+xml</dc:format>
        <dc:type
           rdf:resource="http://purl.org/dc/dcmitype/StillImage" />
        <dc:title></dc:title>
      </cc:Work>
    </rdf:RDF>
  </metadata>
  <g
     inkscape:label="Warstwa 1"
     inkscape:groupmode="layer"
     id="layer1"
     transform="translate(-3.4370526,-3.39271)">
    <g
       id="g578"
       transform="translate(-1300.2075,-330.99253)">
      <path
         style="fill:#ffa100;fill-opacity:1;stroke:none;stroke-width:0.384696px;stroke-linecap:butt;stroke-linejoin:miter;stroke-opacity:1"
         d="m 1303.9062,361.82353 c 1.4886,6.15504 6.6936,8.81536 10.5415,9.95063 13.7589,4.05931 28.9028,5.70736 43.5525,5.7184 14.6496,0.0112 22.8687,-0.82383 32.2435,-2.39061 9.3749,-1.5668 21.3408,-5.12693 23.7543,-10.83528 3.141,-7.42879 -4.8983,-16.55464 -11.714,-21.42442 -11.7049,-8.36307 -43.2149,-8.45701 -43.2149,-8.45701 0,0 -30.8954,0.2376 -42.7647,8.08114 -6.5667,4.33947 -14.1739,12.01472 -12.3982,19.35715 z"
         id="path1613"
         sodipodi:nodetypes="sszcsscss" />
      <path
         style="fill:#ffffff;stroke:none;stroke-width:0.231287px;stroke-linecap:butt;stroke-linejoin:miter;stroke-opacity:1"
         d="m 1312.6929,358.56817 c -1.0318,-0.11699 -1.3166,2.16623 -1.3166,2.16623 0,0 -0.078,1.74407 0.7615,1.87739 0.5689,0.0904 0.9698,-0.58479 1.131,-1.0109 0.3707,-0.98045 0.7464,-2.88278 -0.5759,-3.03272 z"
         id="path1615"
         sodipodi:nodetypes="scsss" />
      <path
         style="fill:#ffffff;stroke:none;stroke-width:0.231287px;stroke-linecap:butt;stroke-linejoin:miter;stroke-opacity:1"
         d="m 1314.4759,348.64472 c -1.0318,-0.117 -1.3166,2.16623 -1.3166,2.16623 0,0 -0.078,1.74407 0.7615,1.87739 0.5689,0.0904 0.9698,-0.58479 1.1309,-1.0109 0.3708,-0.98045 0.7465,-2.88278 -0.5758,-3.03272 z"
         id="path1615-0"
         sodipodi:nodetypes="scsss" />
      <path
         style="fill:#ffffff;stroke:none;stroke-width:0.231287px;stroke-linecap:butt;stroke-linejoin:miter;stroke-opacity:1"
         d="m 1329.4226,341.70078 c -1.0318,-0.117 -1.3166,2.16623 -1.3166,2.16623 0,0 -0.078,1.74406 0.7615,1.87739 0.5689,0.0904 0.9699,-0.58479 1.131,-1.01091 0.3707,-0.98044 0.7464,-2.88277 -0.5759,-3.03271 z"
         id="path1615-3"
         sodipodi:nodetypes="scsss" />
      <path
         style="fill:#ffffff;stroke:none;stroke-width:0.231287px;stroke-linecap:butt;stroke-linejoin:miter;stroke-opacity:1"
         d="m 1324.1023,350.27859 c -1.0318,-0.117 -1.3165,2.16623 -1.3165,2.16623 0,0 -0.078,1.74407 0.7614,1.87739 0.5689,0.0904 0.9699,-0.58479 1.131,-1.0109 0.3708,-0.98045 0.7464,-2.88278 -0.5759,-3.03272 z"
         id="path1615-2"
         sodipodi:nodetypes="scsss" />
      <path
         style="fill:#ffffff;stroke:none;stroke-width:0.231287px;stroke-linecap:butt;stroke-linejoin:miter;stroke-opacity:1"
         d="m 1328.1425,360.89874 c -1.0318,-0.117 -1.3166,2.16622 -1.3166,2.16622 0,0 -0.078,1.74407 0.7615,1.8774 0.5689,0.0904 0.9698,-0.58479 1.1309,-1.01091 0.3708,-0.98044 0.7465,-2.88277 -0.5758,-3.03271 z"
         id="path1615-05"
         sodipodi:nodetypes="scsss" />
      <path
         style="fill:#ffffff;stroke:none;stroke-width:0.231287px;stroke-linecap:butt;stroke-linejoin:miter;stroke-opacity:1"
         d="m 1333.7318,352.93363 c -1.0318,-0.117 -1.3165,2.16622 -1.3165,2.16622 0,0 -0.078,1.74407 0.7614,1.8774 0.5689,0.0904 0.9699,-0.58479 1.131,-1.01091 0.3707,-0.98044 0.7464,-2.88277 -0.5759,-3.03271 z"
         id="path1615-06"
         sodipodi:nodetypes="scsss" />
      <path
         style="fill:#ffffff;stroke:none;stroke-width:0.231287px;stroke-linecap:butt;stroke-linejoin:miter;stroke-opacity:1"
         d="m 1344.44,358.8564 c -1.0319,-0.117 -1.3166,2.16623 -1.3166,2.16623 0,0 -0.078,1.74407 0.7614,1.87739 0.5689,0.0904 0.9699,-0.58479 1.131,-1.0109 0.3708,-0.98045 0.7464,-2.88278 -0.5758,-3.03272 z"
         id="path1615-26"
         sodipodi:nodetypes="scsss" />
      <path
         style="fill:#ffffff;stroke:none;stroke-width:0.231287px;stroke-linecap:butt;stroke-linejoin:miter;stroke-opacity:1"
         d="m 1354.8694,360.89874 c -1.0318,-0.117 -1.3165,2.16622 -1.3165,2.16622 0,0 -0.078,1.74407 0.7614,1.8774 0.5689,0.0904 0.9699,-0.58479 1.131,-1.01091 0.3707,-0.98044 0.7464,-2.88277 -0.5759,-3.03271 z"
         id="path1615-9"
         sodipodi:nodetypes="scsss" />
      <path
         style="fill:#ffffff;stroke:none;stroke-width:0.231287px;stroke-linecap:butt;stroke-linejoin:miter;stroke-opacity:1"
         d="m 1370.0978,358.8564 c -1.0318,-0.117 -1.3166,2.16623 -1.3166,2.16623 0,0 -0.078,1.74407 0.7615,1.87739 0.5689,0.0904 0.9698,-0.58479 1.131,-1.0109 0.3707,-0.98045 0.7464,-2.88278 -0.5759,-3.03272 z"
         id="path1615-8"
         sodipodi:nodetypes="scsss" />
      <path
         style="fill:#ffffff;stroke:none;stroke-width:0.231287px;stroke-linecap:butt;stroke-linejoin:miter;stroke-opacity:1"
         d="m 1343.0582,343.33465 c -1.0319,-0.117 -1.3166,2.16622 -1.3166,2.16622 0,0 -0.078,1.74407 0.7614,1.8774 0.5689,0.0904 0.9699,-0.58479 1.131,-1.01091 0.3708,-0.98044 0.7465,-2.88277 -0.5758,-3.03271 z"
         id="path1615-82"
         sodipodi:nodetypes="scsss" />
      <path
         style="fill:#ffffff;stroke:none;stroke-width:0.231287px;stroke-linecap:butt;stroke-linejoin:miter;stroke-opacity:1"
         d="m 1364.1569,338.02458 c -1.0318,-0.117 -1.3166,2.16622 -1.3166,2.16622 0,0 -0.078,1.74407 0.7615,1.87739 0.5689,0.0904 0.9698,-0.58478 1.131,-1.0109 0.3707,-0.98044 0.7464,-2.88277 -0.5759,-3.03271 z"
         id="path1615-36"
         sodipodi:nodetypes="scsss" />
      <path
         style="fill:#ffffff;stroke:none;stroke-width:0.231287px;stroke-linecap:butt;stroke-linejoin:miter;stroke-opacity:1"
         d="m 1355.3657,347.82779 c -1.0318,-0.117 -1.3166,2.16622 -1.3166,2.16622 0,0 -0.078,1.74407 0.7615,1.8774 0.5689,0.0904 0.9698,-0.58479 1.131,-1.01091 0.3707,-0.98044 0.7464,-2.88277 -0.5759,-3.03271 z"
         id="path1615-1"
         sodipodi:nodetypes="scsss" />
      <path
         style="fill:#ffffff;stroke:none;stroke-width:0.231287px;stroke-linecap:butt;stroke-linejoin:miter;stroke-opacity:1"
         d="m 1376.4609,341.29231 c -1.0318,-0.117 -1.3166,2.16623 -1.3166,2.16623 0,0 -0.078,1.74407 0.7615,1.87739 0.5689,0.0904 0.9698,-0.58479 1.1309,-1.0109 0.3708,-0.98045 0.7465,-2.88278 -0.5758,-3.03272 z"
         id="path1615-34"
         sodipodi:nodetypes="scsss" />
      <path
         style="fill:#ffffff;stroke:none;stroke-width:0.231287px;stroke-linecap:butt;stroke-linejoin:miter;stroke-opacity:1"
         d="m 1378.6271,350.89129 c -1.0318,-0.117 -1.3165,2.16623 -1.3165,2.16623 0,0 -0.078,1.74407 0.7614,1.87739 0.5689,0.0904 0.9699,-0.58479 1.131,-1.0109 0.3707,-0.98045 0.7464,-2.88278 -0.5759,-3.03272 z"
         id="path1615-5"
         sodipodi:nodetypes="scsss" />
      <path
         style="fill:#ffffff;stroke:none;stroke-width:0.231287px;stroke-linecap:butt;stroke-linejoin:miter;stroke-opacity:1"
         d="m 1399.4718,350.07436 c -1.0319,-0.117 -1.3166,2.16622 -1.3166,2.16622 0,0 -0.078,1.74407 0.7614,1.8774 0.5689,0.0904 0.9699,-0.58479 1.131,-1.01091 0.3708,-0.98044 0.7465,-2.88277 -0.5758,-3.03271 z"
         id="path1615-6"
         sodipodi:nodetypes="scsss" />
      <path
         style="fill:#ffffff;stroke:none;stroke-width:0.231287px;stroke-linecap:butt;stroke-linejoin:miter;stroke-opacity:1"
         d="m 1388.2686,357.631 c -1.0318,-0.117 -1.3166,2.16623 -1.3166,2.16623 0,0 -0.078,1.74406 0.7615,1.87739 0.5689,0.0904 0.9698,-0.58479 1.1309,-1.01091 0.3708,-0.98044 0.7465,-2.88277 -0.5758,-3.03271 z"
         id="path1615-69"
         sodipodi:nodetypes="scsss" />
    </g>
  </g>
</svg>
