<?xml version="1.0" encoding="UTF-8" standalone="no"?>
<svg
   xmlns:dc="http://purl.org/dc/elements/1.1/"
   xmlns:cc="http://creativecommons.org/ns#"
   xmlns:rdf="http://www.w3.org/1999/02/22-rdf-syntax-ns#"
   xmlns:svg="http://www.w3.org/2000/svg"
   xmlns="http://www.w3.org/2000/svg"
   xmlns:sodipodi="http://sodipodi.sourceforge.net/DTD/sodipodi-0.dtd"
   xmlns:inkscape="http://www.inkscape.org/namespaces/inkscape"
   width="111.05443mm"
   height="43.10743mm"
   viewBox="0 0 111.05443 43.10743"
   version="1.1"
   id="svg271"
   inkscape:version="1.0.1 (3bc2e813f5, 2020-09-07)"
   sodipodi:docname="buntop-dark.svg">
  <style
     id="style273"></style>
  <defs
     id="defs265" />
  <sodipodi:namedview
     id="base"
     pagecolor="#ffffff"
     bordercolor="#666666"
     borderopacity="1.0"
     inkscape:pageopacity="0.0"
     inkscape:pageshadow="2"
     inkscape:zoom="0.35"
     inkscape:cx="375.58091"
     inkscape:cy="412.89145"
     inkscape:document-units="mm"
     inkscape:current-layer="layer1"
     inkscape:document-rotation="0"
     showgrid="false"
     fit-margin-top="0"
     fit-margin-left="0"
     fit-margin-right="0"
     fit-margin-bottom="0"
     inkscape:window-width="1560"
     inkscape:window-height="1040"
     inkscape:window-x="208"
     inkscape:window-y="0"
     inkscape:window-maximized="0" />
  <metadata
     id="metadata268">
    <rdf:RDF>
      <cc:Work
         rdf:about="">
        <dc:format>image/svg+xml</dc:format>
        <dc:type
           rdf:resource="http://purl.org/dc/dcmitype/StillImage" />
        <dc:title></dc:title>
      </cc:Work>
    </rdf:RDF>
  </metadata>
  <g
     inkscape:label="Warstwa 1"
     inkscape:groupmode="layer"
     id="layer1"
     transform="translate(-6.4608837,-38.92247)">
    <g
       id="g1983"
       transform="translate(-349.25,-416.52977)">
      <path
         style="fill:#1a1a1a;fill-opacity:1;stroke:none;stroke-width:0.384696px;stroke-linecap:butt;stroke-linejoin:miter;stroke-opacity:1"
         d="m 355.97253,482.89053 c 1.48852,6.15504 6.69354,8.81536 10.54151,9.95063 13.75889,4.05931 28.9028,5.70736 43.55242,5.7184 14.64965,0.0112 22.86873,-0.82383 32.24356,-2.39061 9.37483,-1.5668 21.34073,-5.12693 23.7543,-10.83528 3.14099,-7.42879 -4.89829,-16.55464 -11.714,-21.42442 -11.70493,-8.36307 -43.2149,-8.45701 -43.2149,-8.45701 0,0 -30.89543,0.2376 -42.76469,8.08114 -6.56675,4.33947 -14.17389,12.01472 -12.3982,19.35715 z"
         id="path1613-8"
         sodipodi:nodetypes="sszcsscss" />
      <path
         style="fill:#ffffff;stroke:none;stroke-width:0.231287px;stroke-linecap:butt;stroke-linejoin:miter;stroke-opacity:1"
         d="m 364.75921,479.63517 c -1.03182,-0.11699 -1.31658,2.16623 -1.31658,2.16623 0,0 -0.0778,1.74407 0.76146,1.87739 0.5689,0.0904 0.96984,-0.58479 1.13097,-1.0109 0.37075,-0.98045 0.74644,-2.88278 -0.57585,-3.03272 z"
         id="path1615-23"
         sodipodi:nodetypes="scsss" />
      <path
         style="fill:#ffffff;stroke:none;stroke-width:0.231287px;stroke-linecap:butt;stroke-linejoin:miter;stroke-opacity:1"
         d="m 366.54217,469.71172 c -1.03181,-0.117 -1.31657,2.16623 -1.31657,2.16623 0,0 -0.0778,1.74407 0.76146,1.87739 0.5689,0.0904 0.96984,-0.58479 1.13097,-1.0109 0.37075,-0.98045 0.74644,-2.88278 -0.57586,-3.03272 z"
         id="path1615-0-8"
         sodipodi:nodetypes="scsss" />
      <path
         style="fill:#ffffff;stroke:none;stroke-width:0.231287px;stroke-linecap:butt;stroke-linejoin:miter;stroke-opacity:1"
         d="m 381.48893,462.76778 c -1.03181,-0.117 -1.31657,2.16623 -1.31657,2.16623 0,0 -0.0778,1.74406 0.76146,1.87739 0.5689,0.0904 0.96984,-0.58479 1.13097,-1.01091 0.37075,-0.98044 0.74644,-2.88277 -0.57586,-3.03271 z"
         id="path1615-3-7"
         sodipodi:nodetypes="scsss" />
      <path
         style="fill:#ffffff;stroke:none;stroke-width:0.231287px;stroke-linecap:butt;stroke-linejoin:miter;stroke-opacity:1"
         d="m 376.16865,471.34559 c -1.03182,-0.117 -1.31658,2.16623 -1.31658,2.16623 0,0 -0.0778,1.74407 0.76146,1.87739 0.5689,0.0904 0.96984,-0.58479 1.13098,-1.0109 0.37074,-0.98045 0.74644,-2.88278 -0.57586,-3.03272 z"
         id="path1615-2-8"
         sodipodi:nodetypes="scsss" />
      <path
         style="fill:#ffffff;stroke:none;stroke-width:0.231287px;stroke-linecap:butt;stroke-linejoin:miter;stroke-opacity:1"
         d="m 380.20879,481.96574 c -1.03181,-0.117 -1.31658,2.16622 -1.31658,2.16622 0,0 -0.0778,1.74407 0.76147,1.8774 0.56889,0.0904 0.96983,-0.58479 1.13097,-1.01091 0.37075,-0.98044 0.74644,-2.88277 -0.57586,-3.03271 z"
         id="path1615-05-0"
         sodipodi:nodetypes="scsss" />
      <path
         style="fill:#ffffff;stroke:none;stroke-width:0.231287px;stroke-linecap:butt;stroke-linejoin:miter;stroke-opacity:1"
         d="m 385.79813,474.00063 c -1.03181,-0.117 -1.31658,2.16622 -1.31658,2.16622 0,0 -0.0778,1.74407 0.76147,1.8774 0.56889,0.0904 0.96984,-0.58479 1.13097,-1.01091 0.37075,-0.98044 0.74644,-2.88277 -0.57586,-3.03271 z"
         id="path1615-06-7"
         sodipodi:nodetypes="scsss" />
      <path
         style="fill:#ffffff;stroke:none;stroke-width:0.231287px;stroke-linecap:butt;stroke-linejoin:miter;stroke-opacity:1"
         d="m 396.50625,479.9234 c -1.03181,-0.117 -1.31658,2.16623 -1.31658,2.16623 0,0 -0.0778,1.74407 0.76147,1.87739 0.56889,0.0904 0.96984,-0.58479 1.13097,-1.0109 0.37075,-0.98045 0.74644,-2.88278 -0.57586,-3.03272 z"
         id="path1615-26-4"
         sodipodi:nodetypes="scsss" />
      <path
         style="fill:#ffffff;stroke:none;stroke-width:0.231287px;stroke-linecap:butt;stroke-linejoin:miter;stroke-opacity:1"
         d="m 406.93574,481.96574 c -1.03181,-0.117 -1.31658,2.16622 -1.31658,2.16622 0,0 -0.0778,1.74407 0.76147,1.8774 0.56889,0.0904 0.96983,-0.58479 1.13097,-1.01091 0.37075,-0.98044 0.74644,-2.88277 -0.57586,-3.03271 z"
         id="path1615-9-7"
         sodipodi:nodetypes="scsss" />
      <path
         style="fill:#ffffff;stroke:none;stroke-width:0.231287px;stroke-linecap:butt;stroke-linejoin:miter;stroke-opacity:1"
         d="m 422.16412,479.9234 c -1.03181,-0.117 -1.31658,2.16623 -1.31658,2.16623 0,0 -0.0778,1.74407 0.76147,1.87739 0.56889,0.0904 0.96984,-0.58479 1.13097,-1.0109 0.37075,-0.98045 0.74644,-2.88278 -0.57586,-3.03272 z"
         id="path1615-8-3"
         sodipodi:nodetypes="scsss" />
      <path
         style="fill:#ffffff;stroke:none;stroke-width:0.231287px;stroke-linecap:butt;stroke-linejoin:miter;stroke-opacity:1"
         d="m 395.12446,464.40165 c -1.03181,-0.117 -1.31658,2.16622 -1.31658,2.16622 0,0 -0.0778,1.74407 0.76147,1.8774 0.56889,0.0904 0.96983,-0.58479 1.13097,-1.01091 0.37075,-0.98044 0.74644,-2.88277 -0.57586,-3.03271 z"
         id="path1615-82-7"
         sodipodi:nodetypes="scsss" />
      <path
         style="fill:#ffffff;stroke:none;stroke-width:0.231287px;stroke-linecap:butt;stroke-linejoin:miter;stroke-opacity:1"
         d="m 416.22321,459.09158 c -1.03181,-0.117 -1.31658,2.16622 -1.31658,2.16622 0,0 -0.0778,1.74407 0.76147,1.87739 0.56889,0.0904 0.96984,-0.58478 1.13097,-1.0109 0.37075,-0.98044 0.74644,-2.88277 -0.57586,-3.03271 z"
         id="path1615-36-7"
         sodipodi:nodetypes="scsss" />
      <path
         style="fill:#ffffff;stroke:none;stroke-width:0.231287px;stroke-linecap:butt;stroke-linejoin:miter;stroke-opacity:1"
         d="m 407.43201,468.89479 c -1.03181,-0.117 -1.31658,2.16622 -1.31658,2.16622 0,0 -0.0778,1.74407 0.76147,1.8774 0.56889,0.0904 0.96984,-0.58479 1.13097,-1.01091 0.37075,-0.98044 0.74644,-2.88277 -0.57586,-3.03271 z"
         id="path1615-1-0"
         sodipodi:nodetypes="scsss" />
      <path
         style="fill:#ffffff;stroke:none;stroke-width:0.231287px;stroke-linecap:butt;stroke-linejoin:miter;stroke-opacity:1"
         d="m 428.52717,462.35931 c -1.03181,-0.117 -1.31658,2.16623 -1.31658,2.16623 0,0 -0.0778,1.74407 0.76147,1.87739 0.56889,0.0904 0.96983,-0.58479 1.13097,-1.0109 0.37075,-0.98045 0.74644,-2.88278 -0.57586,-3.03272 z"
         id="path1615-34-9"
         sodipodi:nodetypes="scsss" />
      <path
         style="fill:#ffffff;stroke:none;stroke-width:0.231287px;stroke-linecap:butt;stroke-linejoin:miter;stroke-opacity:1"
         d="m 430.69343,471.95829 c -1.03181,-0.117 -1.31658,2.16623 -1.31658,2.16623 0,0 -0.0778,1.74407 0.76147,1.87739 0.56889,0.0904 0.96984,-0.58479 1.13097,-1.0109 0.37075,-0.98045 0.74644,-2.88278 -0.57586,-3.03272 z"
         id="path1615-5-4"
         sodipodi:nodetypes="scsss" />
      <path
         style="fill:#ffffff;stroke:none;stroke-width:0.231287px;stroke-linecap:butt;stroke-linejoin:miter;stroke-opacity:1"
         d="m 451.53806,471.14136 c -1.03181,-0.117 -1.31658,2.16622 -1.31658,2.16622 0,0 -0.0778,1.74407 0.76147,1.8774 0.56889,0.0904 0.96983,-0.58479 1.13097,-1.01091 0.37075,-0.98044 0.74644,-2.88277 -0.57586,-3.03271 z"
         id="path1615-6-1"
         sodipodi:nodetypes="scsss" />
      <path
         style="fill:#ffffff;stroke:none;stroke-width:0.231287px;stroke-linecap:butt;stroke-linejoin:miter;stroke-opacity:1"
         d="m 440.33487,478.698 c -1.03181,-0.117 -1.31658,2.16623 -1.31658,2.16623 0,0 -0.0778,1.74406 0.76147,1.87739 0.56889,0.0904 0.96984,-0.58479 1.13097,-1.01091 0.37075,-0.98044 0.74644,-2.88277 -0.57586,-3.03271 z"
         id="path1615-69-7"
         sodipodi:nodetypes="scsss" />
    </g>
  </g>
</svg>
