<?xml version="1.0" encoding="UTF-8" standalone="no"?>
<svg
   xmlns:dc="http://purl.org/dc/elements/1.1/"
   xmlns:cc="http://creativecommons.org/ns#"
   xmlns:rdf="http://www.w3.org/1999/02/22-rdf-syntax-ns#"
   xmlns:svg="http://www.w3.org/2000/svg"
   xmlns="http://www.w3.org/2000/svg"
   xmlns:sodipodi="http://sodipodi.sourceforge.net/DTD/sodipodi-0.dtd"
   xmlns:inkscape="http://www.inkscape.org/namespaces/inkscape"
   width="250"
   height="250"
   viewBox="0 0 66.145833 66.145833"
   version="1.1"
   id="svg880"
   inkscape:version="1.0.1 (3bc2e813f5, 2020-09-07)"
   sodipodi:docname="burgermakerlogo.svg">
  <style
     id="style882"></style>
  <defs
     id="defs874" />
  <sodipodi:namedview
     id="base"
     pagecolor="#ffffff"
     bordercolor="#666666"
     borderopacity="1.0"
     inkscape:pageopacity="0.0"
     inkscape:pageshadow="2"
     inkscape:zoom="0.7"
     inkscape:cx="347.10441"
     inkscape:cy="96.209596"
     inkscape:document-units="px"
     inkscape:current-layer="layer1"
     inkscape:document-rotation="0"
     showgrid="false"
     units="px"
     inkscape:window-width="1560"
     inkscape:window-height="1040"
     inkscape:window-x="182"
     inkscape:window-y="0"
     inkscape:window-maximized="0" />
  <metadata
     id="metadata877">
    <rdf:RDF>
      <cc:Work
         rdf:about="">
        <dc:format>image/svg+xml</dc:format>
        <dc:type
           rdf:resource="http://purl.org/dc/dcmitype/StillImage" />
        <dc:title></dc:title>
      </cc:Work>
    </rdf:RDF>
  </metadata>
  <g
     inkscape:label="Warstwa 1"
     inkscape:groupmode="layer"
     id="layer1">
    <g
       id="g872"
       transform="matrix(0.31040997,0,0,0.30723604,-400.46953,79.544517)"
       inkscape:export-filename="C:\Projekty\BurgerMaker\app\resources\logo_large.png"
       inkscape:export-xdpi="66"
       inkscape:export-ydpi="66">
      <g
         id="g847">
        <g
           aria-label="  Make Your Own"
           transform="matrix(0.31481038,0,0,0.31481038,1655.6539,-23.183718)"
           id="text136"
           style="font-style:normal;font-variant:normal;font-weight:normal;font-stretch:normal;font-size:100.542px;line-height:0;font-family:sans-serif;-inkscape-font-specification:'sans-serif, Normal';font-variant-ligatures:normal;font-variant-caps:normal;font-variant-numeric:normal;font-variant-east-asian:normal;white-space:pre;fill:#f9f9f9;fill-opacity:1;stroke:none">
          <path
             d="m -1138.6361,-593.06036 q 1.9296,-1.61612 8.6982,4.42005 25.4672,8.93213 28.5589,12.62351 l 9.124,6.63282 0.2517,-0.2108 q -13.1862,-23.07232 -16.2561,-34.91848 -2.447,-9.22755 -0.5174,-10.84368 2.7685,-2.31879 9.4826,4.33403 8.4665,7.04079 20.0604,20.88344 l 17.4964,20.88981 q 19.0107,21.33441 21.2758,19.43722 2.2967,-0.49612 3.8426,1.34957 3.8646,4.61422 2.7101,8.00789 l -1.594,1.33506 q -6.2031,1.62675 -35.1035,-29.98159 l -7.6045,-9.76118 -6.3943,-7.63443 q -15.0642,-17.64517 -16.2388,-16.66144 l -0.2516,0.2108 q 2.9954,10.05287 15.5062,31.97791 8.3387,12.00121 5.9057,14.03894 l -1.2584,1.05399 q -2.5168,2.108 -26.0463,-16.4409 l -9.834,-4.7535 -0.755,0.6324 19.0946,21.26415 30.9466,37.4601 q 1.9129,2.9657 -0.3522,4.86289 -2.7707,1.46409 -4.176,-0.21381 l -32.9141,-39.80915 q -15.5991,-18.62465 -34.5562,-35.29334 -1.6161,-1.92958 0.8986,-4.89228 z"
             style="font-size:112.06px;word-spacing:42.0227px"
             id="path676" />
          <path
             d="m -1030.1125,-587.71968 6.2714,-2.23136 -0.1594,-0.287 q 2.1048,-1.16895 5.1125,1.54184 l 3.0604,6.18653 2.3379,4.20942 q 5.154,9.27986 10.3832,12.3842 0.563,2.81679 -1.6374,4.03887 -3.1571,1.75342 -8.6303,-4.72039 l -1.0415,-1.42443 -0.861,0.47821 q 1.0723,10.04466 -3.7541,16.23023 l -1.2225,1.17968 q -9.5027,2.27348 -14.9223,-7.48472 l -0.3188,-0.57402 q -6.7481,-12.14991 1.0341,-25.86054 z m 1.3677,28.15673 q 3.3264,4.41149 5.7181,3.08314 l 0.287,-0.1594 q 3.3484,-1.85969 -0.6877,-26.03082 l -0.1594,-0.28701 -3.0932,0.96688 -0.1913,0.10626 q -7.6535,4.25072 -3.5738,19.25955 z"
             style="font-size:112.06px;word-spacing:42.0227px"
             id="path678" />
          <path
             d="m -1032.8175,-670.93359 q 2.3768,-0.83555 3.9044,2.6785 l 2.6702,8.12586 23.7174,63.23648 0.2439,0.0201 q 5.30859,-15.57145 8.74175,-16.71289 l 0.50783,-0.20372 q 2.9271,0.83024 3.47745,2.49604 0.32595,0.81252 -3.04107,7.11551 -4.45944,11.22184 -4.17128,14.87938 1.58963,4.55039 21.28453,8.08687 5.18104,-0.89933 6.24098,2.3307 0.6525,2.21437 -2.17067,3.70065 -6.62244,2.30295 -23.78115,-5.19874 l -0.6094,0.24447 q 3.26133,9.89321 4.78777,12.22864 2.04018,8.02487 -1.96163,9.51234 -3.6977,0.77592 -4.65549,-1.90554 l 0.72808,-3.47567 -35.4329,-93.90994 -2.8126,-8.18667 q -0.9997,-3.96165 2.3319,-5.06235 z"
             style="font-size:112.06px;word-spacing:42.0227px"
             id="path680" />
          <path
             d="m -962.56429,-617.70366 q 5.89973,-1.658 10.99712,8.39044 0.60646,12.67461 -7.92708,15.0728 l -0.42141,0.11842 0.0888,0.31606 q 4.3799,9.11335 11.64922,7.07045 5.58367,-1.56919 6.36603,-12.13329 l 2.05129,-1.59954 q 2.31775,-0.65136 3.95651,2.75298 1.83566,6.53185 -6.75512,15.19813 l -4.79045,2.36932 q -9.0603,2.54623 -17.23215,-9.139 -2.71498,-4.80697 -3.66242,-8.17825 l -0.38489,-1.36958 q -3.01995,-10.74594 4.57307,-18.10877 z m -0.16752,14.36987 0.0592,0.21071 2.99872,1.77174 q 1.58028,-0.44411 1.73596,-5.14845 l -0.47371,-1.68564 q -1.44459,-3.11788 -2.28741,-2.88103 l -0.63211,0.17765 q -1.58029,0.44411 -1.40067,7.55502 z"
             style="font-size:112.06px;word-spacing:42.0227px"
             id="path682" />
          <path
             d="m -825.91369,-700.47907 q 1.64001,-0.07 3.19194,2.93078 -5.1501,25.63135 -6.47091,53.72816 -1.32081,28.09681 -5.03143,48.95684 l -2.01672,1.50996 q -3.87799,-1.03945 -3.96194,-3.00747 l 4.61793,-43.24348 q -7.25181,-8.23426 -11.41688,-18.57178 -5.25167,-12.7009 -18.92052,-32.71009 l -1.09594,-2.58204 q -0.10726,-2.51469 3.58212,-3.32926 1.87267,0.24873 5.91649,7.74356 7.85911,9.63228 20.50043,36.36682 l 1.32859,2.90072 q 4.52362,-55.72623 9.77684,-50.69272 z"
             style="font-size:112.06px;word-spacing:42.0227px"
             id="path684" />
          <path
             d="m -803.97183,-635.442 q 9.36532,3.51735 9.68096,20.92303 l -0.009,0.65654 q -0.63132,14.54756 -7.78755,17.73564 l -3.0697,0.39694 q -11.6705,-3.0008 -11.47396,-17.77303 l 0.004,-0.32827 q 0.21256,-15.97589 10.56974,-21.20081 z m -6.1855,20.71193 -0.032,2.40733 q 1.06681,10.30186 6.20974,10.37028 2.99812,-3.24341 3.12332,-12.65386 l 0.009,-0.65655 q -0.39135,-11.71563 -3.55008,-12.85209 -5.61411,2.4425 -5.75969,13.38489 z"
             style="font-size:112.06px;word-spacing:42.0227px"
             id="path686" />
          <path
             d="m -763.79749,-632.43996 q 3.49339,0.24357 2.96057,7.88537 -0.60894,8.73349 -0.27582,21.26243 3.38683,1.77194 3.2346,3.95531 l -0.0304,0.43667 q -0.19029,2.72921 -3.94769,3.12543 -2.40171,-0.16746 -3.82872,-4.87433 -5.00372,5.68458 -9.37046,5.38011 -9.69317,-1.00495 -11.76777,-10.58374 -0.2518,-10.54868 0.57027,-22.33889 l 0.14462,-2.0742 q 0.26641,-3.8209 3.75981,-3.57732 2.51087,0.17507 2.76747,4.36153 l -0.12179,1.7467 q -3.99496,25.82988 5.14976,25.2608 6.2859,-3.62059 6.96095,-10.15548 l 0.21312,-3.05672 -0.61735,-10.02568 0.0761,-1.09169 q 0.41103,-5.8951 4.12276,-5.6363 z"
             style="font-size:112.06px;word-spacing:42.0227px"
             id="path688" />
          <path
             d="m -747.02149,-638.17211 q 2.92861,0.39185 3.50379,7.64539 l 0.3254,0.0435 q 4.77484,-4.32951 9.54738,-3.69094 7.62095,2.45502 7.15653,5.92596 -1.38257,2.90646 -3.76884,2.58717 l -3.94759,-1.8531 -1.08467,-0.14513 q -6.55919,0.33686 -9.92625,25.50119 l -0.68212,5.09794 q -1.1007,3.2754 -3.48698,2.95611 -3.47094,-0.46442 -2.91944,-4.58616 l 1.68353,-12.58217 q 1.85768,-13.88377 -0.22,-24.76102 1.21605,-2.4871 3.81926,-2.13878 z"
             style="font-size:112.06px;word-spacing:42.0227px"
             id="path690" />
          <path
             d="m -607.07679,-652.02326 q 13.2941,6.18894 4.10949,47.17982 -2.51121,8.2464 -5.90163,16.56634 -11.22322,24.10794 -27.94709,26.58275 -5.93723,-0.47051 -8.7151,-1.76372 -10.51622,-4.89573 -6.13692,-23.37788 1.31554,-7.23379 5.28754,-15.76582 l 0.73898,-1.58735 q 10.76136,-23.11585 30.89127,-45.61231 l 0.46186,-0.9921 -0.25828,-0.48237 q 2.70782,-2.96429 7.46988,-0.74736 z m -2.32814,6.03812 q -18.46037,19.16951 -30.28401,44.56718 l -0.41568,0.89289 q -10.20713,21.92533 -4.81227,29.2653 l 2.15694,1.84912 0.9921,0.46186 q 8.73045,4.06438 19.69861,-9.90186 2.83954,-3.50652 5.2874,-8.76463 l 2.6788,-5.75416 q 11.17704,-24.00874 7.4058,-48.57881 -1.31875,-3.39029 -2.70769,-4.03689 z"
             style="font-size:112.06px;word-spacing:42.0227px"
             id="path692" />
          <path
             d="m -590.92598,-586.82708 q 3.06385,2.11111 -2.4524,11.46695 -4.64152,13.67966 -4.10084,14.05221 l 0.27034,0.18627 q 8.38615,-10.43498 10.36864,-9.06898 l 1.17147,0.80719 q 2.52317,1.73856 0.8955,16.83039 l 0.27034,0.18627 0.18628,-0.27034 q 14.90574,-19.89686 18.96083,-17.10276 l 0.54068,0.37255 q 2.24073,2.34133 1.061,4.05348 -7.76686,5.67874 -14.53481,15.50108 l -9.01533,13.85545 q -2.52155,2.11655 -4.77438,0.56427 -2.61329,-1.80065 1.53432,-22.86414 l -0.54068,-0.37254 q -14.17052,17.47973 -18.31573,14.62353 -2.79351,-1.92483 2.84692,-11.46089 6.53067,-20.08596 11.17985,-30.30503 1.30392,-1.89238 4.448,-1.05496 z"
             style="font-size:112.06px;word-spacing:42.0227px"
             id="path694" />
          <path
             d="m -542.75326,-543.51366 q 7.36109,8.29126 -11.96091,25.38927 l -7.38114,6.41443 q -3.20368,2.38496 -5.33979,0.0277 -1.97833,-2.20553 0.837,-4.66025 l 7.90899,-7.12138 q 14.0736,-12.4283 10.83,-16.00206 -3.40444,-3.88018 -18.86454,8.88501 l -7.87548,8.82343 q -1.75049,1.505 -4.35079,-0.84309 -2.69139,-3.04286 5.83045,-10.48589 l 15.47469,-19.88593 q 1.90217,-1.66277 4.81499,0.83396 1.58083,1.67159 -1.4407,5.4461 l 0.23971,0.38226 q 7.79724,-1.00488 11.27752,2.79641 z"
             style="font-size:112.06px;word-spacing:42.0227px"
             id="path696" />
        </g>
        <path
           style="fill:none;stroke:none;stroke-width:0.0832935px;stroke-linecap:butt;stroke-linejoin:miter;stroke-opacity:1"
           d="m 1297.6838,-139.49775 c 0,0 -0.9702,-72.82239 100.9042,-72.82239 97.5907,0 98.0484,72.82239 98.0484,72.82239 z"
           id="path1586"
           sodipodi:nodetypes="csc" />
        <path
           id="path1586-0"
           style="fill:#f9f9f9;stroke:none;stroke-width:0.0705386px;stroke-linecap:butt;stroke-linejoin:miter;stroke-opacity:1"
           d="m 1397.3734,-206.17794 c -9.7893,0.0665 -19.5923,0.89995 -29.1573,3.03155 -7.9706,1.76856 -15.7736,4.46282 -22.9544,8.40009 -2.7829,1.52734 -5.4678,3.24755 -8.0023,5.14898 -5.2966,3.95904 -9.9571,8.77952 -13.6645,14.25908 -2.9897,4.40499 -5.3755,9.21774 -7.082,14.2498 -1.5258,4.48875 -2.5519,9.16865 -2.9318,13.89761 -0.04,0.52005 -0.067,1.03138 -0.082,1.55259 55.7738,0 111.5477,0 167.3215,0 -0.1601,-3.1608 -0.7002,-6.30763 -1.4216,-9.39643 -1.7806,-7.49342 -4.9167,-14.65935 -9.2897,-21.00375 -4.2844,-6.23073 -9.7924,-11.6247 -16.0608,-15.85973 -7.1091,-4.82168 -15.1281,-8.20646 -23.4142,-10.42066 -10.8186,-2.90614 -22.0746,-3.90822 -33.261,-3.85913 z" />
        <g
           aria-label="BURGER"
           transform="matrix(0.25693793,0,0,0.38571796,1655.1611,-26.451997)"
           id="text176"
           style="font-style:normal;font-variant:normal;font-weight:normal;font-stretch:normal;font-size:118.625px;line-height:1.25;font-family:'Alien Encounters Solid';-inkscape-font-specification:'Alien Encounters Solid';fill:#f9f9f9;fill-opacity:1;stroke:none;stroke-width:2.96561">
          <path
             d="m -1329.7452,-196.28688 v -94.87683 h 85.4934 q 7.3562,0 12.5692,5.27093 5.2709,5.21302 5.2709,12.51123 v 12.04786 q 0,9.73095 -8.225,15.00189 3.3595,0.0579 5.7923,2.49066 2.4327,2.43274 2.4327,5.85016 v 23.80609 q 0,7.41406 -5.2709,12.685 -5.271,5.21301 -12.6271,5.21301 z m 58.6175,-66.61072 q 0,-2.83819 -2.0853,-4.86548 -2.0272,-2.0852 -4.8654,-2.0852 h -6.9507 v 14.7702 h 6.9507 q 2.8382,0 4.8654,-1.96936 2.0853,-2.02728 2.0853,-4.98132 z m -6.9507,45.29529 q 2.8382,0 4.8654,-2.02728 2.0853,-2.02729 2.0853,-4.9234 v -2.25898 q 0,-2.83819 -2.0853,-4.86547 -2.0272,-2.08521 -4.8654,-2.08521 h -6.9507 v 16.16034 z"
             style="font-style:normal;font-variant:normal;font-weight:normal;font-stretch:normal;font-family:'Super Retro M54';-inkscape-font-specification:'Super Retro M54';fill:#f9f9f9;stroke-width:2.96561"
             id="path699" />
          <path
             d="m -1175.3242,-291.16371 v 66.61072 q 0,2.89611 2.0273,4.9234 2.0273,2.02728 4.9234,2.02728 2.8382,0 4.8655,-2.02728 2.0852,-2.02729 2.0852,-4.9234 v -66.61072 h 44.6582 v 76.97882 q 0,7.41406 -5.271,12.685 -5.2709,5.21301 -12.6271,5.21301 h -67.4795 q -7.4141,0 -12.685,-5.21301 -5.213,-5.27094 -5.213,-12.685 v -76.97882 z"
             style="font-style:normal;font-variant:normal;font-weight:normal;font-stretch:normal;font-family:'Super Retro M54';-inkscape-font-specification:'Super Retro M54';fill:#f9f9f9;stroke-width:2.96561"
             id="path701" />
          <path
             d="m -1024.9577,-291.16371 q 7.3561,0 12.6271,5.27093 5.2709,5.27094 5.2709,12.62708 v 22.93725 q 0,9.73096 -8.167,15.05982 6.2556,4.17041 7.4719,11.93201 0.6951,4.63378 1.2164,9.38342 0.5792,4.74963 1.2743,9.38342 0,5.50263 5.0392,7.64575 l -0.1737,0.63715 h -41.2987 q -3.4753,0 -5.908,-2.43274 -2.3749,-2.43274 -2.3749,-5.90808 l -1.7376,-20.85205 q 0,-2.78028 -2.0852,-4.80756 -2.0852,-2.0852 -4.9234,-2.14313 h -6.9507 v 36.14356 h -44.7161 v -94.87683 z m -33.7687,21.31543 h -6.9507 v 16.16034 h 6.9507 q 2.8382,0 4.9234,-2.02729 2.0852,-2.02728 2.0852,-4.9234 v -2.25897 q 0,-2.83819 -2.0852,-4.86548 -2.0852,-2.0852 -4.9234,-2.0852 z"
             style="font-style:normal;font-variant:normal;font-weight:normal;font-stretch:normal;font-family:'Super Retro M54';-inkscape-font-specification:'Super Retro M54';fill:#f9f9f9;stroke-width:2.96561"
             id="path703" />
          <path
             d="m -975.95538,-291.16371 h 67.53747 q 7.35614,0 12.62708,5.27093 5.27093,5.27094 5.27093,12.62708 v 14.53851 h -44.71606 v -4.17041 q 0,-2.83819 -2.08521,-4.86548 -2.02728,-2.0852 -4.86548,-2.0852 -2.89611,0 -4.9234,2.0852 -2.02728,2.02729 -2.02728,4.86548 v 38.34461 q 0,2.89611 2.02728,4.9234 2.02729,2.02728 4.9234,2.02728 2.8382,0 4.86548,-2.02728 2.08521,-2.02729 2.08521,-4.9234 v -4.17041 h -6.95069 v -15.0019 h 51.66675 v 29.54041 q 0,7.41406 -5.27093,12.685 -5.27094,5.21301 -12.62708,5.21301 h -67.53747 q -7.41407,0 -12.685,-5.21301 -5.21301,-5.27094 -5.21301,-12.685 v -59.08081 q 0,-7.35614 5.21301,-12.62708 5.27093,-5.27093 12.685,-5.27093 z"
             style="font-style:normal;font-variant:normal;font-weight:normal;font-stretch:normal;font-family:'Super Retro M54';-inkscape-font-specification:'Super Retro M54';fill:#f9f9f9;stroke-width:2.96561"
             id="path705" />
          <path
             d="m -792.51526,-291.16371 v 21.31543 h -46.91711 v 13.03253 h 46.91711 v 21.31543 h -46.91711 v 17.89801 h 46.91711 v 21.31543 h -91.63318 v -94.87683 z"
             style="font-style:normal;font-variant:normal;font-weight:normal;font-stretch:normal;font-family:'Super Retro M54';-inkscape-font-specification:'Super Retro M54';fill:#f9f9f9;stroke-width:2.96561"
             id="path707" />
          <path
             d="m -700.70831,-291.16371 q 7.35614,0 12.62707,5.27093 5.27094,5.27094 5.27094,12.62708 v 22.93725 q 0,9.73096 -8.16706,15.05982 6.25562,4.17041 7.47199,11.93201 0.69507,4.63378 1.21637,9.38342 0.57922,4.74963 1.27429,9.38342 0,5.50263 5.03925,7.64575 l -0.17377,0.63715 h -41.29865 q -3.47534,0 -5.90808,-2.43274 -2.37481,-2.43274 -2.37481,-5.90808 l -1.73767,-20.85205 q 0,-2.78028 -2.08521,-4.80756 -2.0852,-2.0852 -4.9234,-2.14313 h -6.95068 v 36.14356 h -44.71607 v -94.87683 z m -33.76874,21.31543 h -6.95068 v 16.16034 h 6.95068 q 2.8382,0 4.9234,-2.02729 2.08521,-2.02728 2.08521,-4.9234 v -2.25897 q 0,-2.83819 -2.08521,-4.86548 -2.0852,-2.0852 -4.9234,-2.0852 z"
             style="font-style:normal;font-variant:normal;font-weight:normal;font-stretch:normal;font-family:'Super Retro M54';-inkscape-font-specification:'Super Retro M54';fill:#f9f9f9;stroke-width:2.96561"
             id="path709" />
        </g>
        <path
           style="fill:#f9f9f9;stroke:none;stroke-width:0.0409578px;stroke-linecap:butt;stroke-linejoin:miter;stroke-opacity:1"
           d="m 1313.5369,-93.120458 c 0,0 5.3911,34.439541 16.1733,34.439541 47.3732,0 92.6943,0 134.9605,0 10.7415,0 16.1123,-34.309455 16.1123,-34.309455 z"
           id="path350"
           sodipodi:nodetypes="csscc" />
      </g>
    </g>
  </g>
</svg>
