<?xml version="1.0" encoding="UTF-8" standalone="no"?>
<svg
   xmlns:dc="http://purl.org/dc/elements/1.1/"
   xmlns:cc="http://creativecommons.org/ns#"
   xmlns:rdf="http://www.w3.org/1999/02/22-rdf-syntax-ns#"
   xmlns:svg="http://www.w3.org/2000/svg"
   xmlns="http://www.w3.org/2000/svg"
   xmlns:sodipodi="http://sodipodi.sourceforge.net/DTD/sodipodi-0.dtd"
   xmlns:inkscape="http://www.inkscape.org/namespaces/inkscape"
   width="132.43121mm"
   height="27.893763mm"
   viewBox="0 0 132.43121 27.893763"
   version="1.1"
   id="svg215"
   inkscape:version="1.0.1 (3bc2e813f5, 2020-09-07)"
   sodipodi:docname="salad.svg">
  <style
     id="style217"></style>
  <defs
     id="defs209" />
  <sodipodi:namedview
     id="base"
     pagecolor="#ffffff"
     bordercolor="#666666"
     borderopacity="1.0"
     inkscape:pageopacity="0.0"
     inkscape:pageshadow="2"
     inkscape:zoom="0.35"
     inkscape:cx="-86.879141"
     inkscape:cy="-18.715967"
     inkscape:document-units="mm"
     inkscape:current-layer="layer1"
     inkscape:document-rotation="0"
     showgrid="false"
     fit-margin-top="0"
     fit-margin-left="0"
     fit-margin-right="0"
     fit-margin-bottom="0"
     inkscape:window-width="1560"
     inkscape:window-height="1040"
     inkscape:window-x="26"
     inkscape:window-y="0"
     inkscape:window-maximized="0" />
  <metadata
     id="metadata212">
    <rdf:RDF>
      <cc:Work
         rdf:about="">
        <dc:format>image/svg+xml</dc:format>
        <dc:type
           rdf:resource="http://purl.org/dc/dcmitype/StillImage" />
        <dc:title></dc:title>
      </cc:Work>
    </rdf:RDF>
  </metadata>
  <g
     inkscape:label="Warstwa 1"
     inkscape:groupmode="layer"
     id="layer1"
     transform="translate(-128.82011,-153.1186)">
    <g
       id="g1460"
       transform="matrix(0.10411297,-0.15883168,0.42687748,0.04255882,-69.129762,181.8863)">
      <path
         style="fill:#ade05f;fill-opacity:0.988453;stroke:none;stroke-width:0.264583px;stroke-linecap:butt;stroke-linejoin:miter;stroke-opacity:1"
         d="m 287.26191,688.29464 c -15.17417,5.73482 -30.23742,-11.83886 -45.73514,-16.63095 -14.53876,-4.49556 -31.1306,-3.58239 -44.2232,-11.3393 -4.6014,-2.72617 -9.579,-6.55061 -10.96131,-11.71725 -2.00628,-7.49884 7.50726,-15.2389 5.29166,-22.67858 -2.23825,-7.51572 -14.77766,-8.73516 -17.00892,-16.25296 -1.8782,-6.32823 6.25436,-12.90339 4.5357,-19.2768 -2.52927,-9.37943 -21.01319,-13.32313 -20.03274,-21.16666 0,0 3.708,-12.22076 2.26787,-18.14285 -1.84148,-7.57251 -12.69261,-11.50209 -13.22916,-19.2768 -0.48491,-7.02645 10.63674,-11.95643 9.4494,-18.89879 -2.01945,-11.80767 -17.54974,-23.88487 -9.07145,-41.5774 7.35687,-15.35235 21.80313,-2.61086 22.67858,-10.96131 1.6335,-15.58107 1.25849,-36.5826 15.11906,-41.95535 13.32926,-5.1668 24.43447,8.73565 37.93437,20.00673 4.71119,3.93338 11.4518,-7.65391 17.38183,-6.07231 14.21066,3.79013 16.65896,25.1714 28.87448,33.36218 5.21681,3.49799 13.83543,1.17823 17.86289,5.99805 6.69514,8.01234 0.41546,21.39996 4.5357,30.99403 3.54077,8.24475 14.08356,-6.52439 17.7649,12.47322 0.91866,4.74078 -7.74053,15.47871 -4.91369,22.67858 2.41421,6.14891 13.65642,5.26511 16.25296,11.33928 3.55809,8.32356 -7.59562,18.46238 -4.15775,26.83631 3.45482,8.4152 19.0278,7.62912 21.92264,16.25299 2.42329,7.21909 -2.70629,15.27772 -6.42559,21.9226 -3.48541,6.22701 -10.23193,10.0563 -14.36309,15.875 -12.79479,18.02132 -11.07575,50.39486 -31.75,58.20834 z"
         id="path1451"
         sodipodi:nodetypes="ssssssassssssssssssssssssss" />
      <path
         style="fill:#dcf2b5;fill-opacity:1;stroke:none;stroke-width:0.264583px;stroke-linecap:butt;stroke-linejoin:miter;stroke-opacity:1"
         d="m 287.16741,703.90978 c 0,0 -8.48901,-24.13269 -10.75014,-28.20291 -2.85352,-5.13657 -6.84359,-9.58219 -10.75759,-13.96484 -5.84395,-6.54369 -12.04562,-12.84343 -18.90932,-18.30797 -6.97895,-5.5563 -14.47232,-10.5756 -22.45063,-14.56619 -8.3187,-4.16084 -26.19243,-9.62171 -26.19243,-9.62171 l 0.4009,-2.4054 22.85155,7.34991 22.85154,10.8244 23.78699,17.2389 -4.40994,-12.82893 -11.22532,-13.09622 -12.56167,-12.02714 -15.63527,-10.82442 -28.46421,-11.22532 0.40092,-2.67268 33.40867,12.29439 27.12786,19.10977 c 0,0 -4.02068,-14.88539 -8.1517,-21.24792 -5.83187,-8.98215 -13.91464,-16.61939 -22.71792,-22.71792 -9.20947,-6.37992 -30.60237,-13.89801 -30.60237,-13.89801 0,0 -0.53454,-2.53904 0,-2.13815 0.53454,0.4009 17.92122,5.56693 26.19242,9.88896 7.80794,4.07996 21.78246,14.96711 21.78246,14.96711 0,0 -2.89378,-14.94659 -6.68173,-21.38156 -4.61915,-7.847 -11.52521,-14.35864 -18.84252,-19.77795 -9.57322,-7.09006 -31.9387,-16.03618 -31.9387,-16.03618 l 0.4009,-1.33633 c 0,0 18.06063,5.83102 26.45968,10.15624 6.45845,3.32588 18.17434,12.02711 18.17434,12.02711 0,0 -7.34992,-20.17884 -7.61717,-20.98064 -0.26728,-0.80181 -9.7751,-12.95074 -16.16983,-17.77343 -8.09571,-6.10551 -27.26147,-13.49711 -27.26147,-13.49711 l 0.80179,-0.80182 c 0,0 15.27694,4.36194 22.18338,8.15173 5.79548,3.18018 15.7689,12.02714 15.7689,12.02714 l -18.57523,-53.05301 2.00451,-0.26728 22.58428,51.98393 c 0,0 2.01596,-14.77181 4.40994,-21.78246 2.43989,-7.1451 10.02263,-20.31248 10.02263,-20.31248 l 1.20272,0.53453 c 0,0 -7.65197,13.87194 -9.22081,21.51521 -2.36451,11.51969 -2.49827,23.78814 0,35.27956 1.54991,7.12919 9.08717,19.91159 9.08717,19.91159 0,0 1.56576,-17.59663 4.2763,-25.92514 2.85445,-8.77068 12.42803,-24.72243 12.42803,-24.72243 l 1.73726,1.20269 c 0,0 -10.02401,18.81932 -12.02714,29.1324 -2.16586,11.15091 -2.00674,22.9475 0.26728,34.07685 1.45903,7.1407 8.41899,20.17884 8.41899,20.17884 0,0 2.15808,-19.52616 5.3454,-28.73147 3.07704,-8.88682 13.09619,-24.98968 13.09619,-24.98968 l 1.73725,0.80179 c 0,0 -8.84226,16.08287 -11.22531,24.85607 -2.64214,9.72701 -3.04432,19.98968 -3.20723,30.06783 -0.078,4.8234 -0.10103,9.75257 1.06907,14.43254 1.52381,6.09465 7.61717,18.0407 7.61717,17.2389 0,-0.80181 3.28744,-23.72978 7.20958,-34.96506 3.80656,-10.90421 15.64198,-30.91687 15.64198,-30.91687 l 1.41741,0.8032 c 0,0 -11.52302,20.24204 -13.3109,31.80368 -1.22997,7.9538 -4.10769,21.38181 -4.14269,23.78696 -0.18899,12.98877 -1.40211,20.83938 1.20272,29.5333 1.41155,4.7112 5.07812,9.6217 5.07812,9.6217 0,0 3.81657,-22.76802 7.08265,-33.80959 1.78799,-6.04464 4.16809,-11.91908 6.81535,-17.6398 3.64144,-7.86912 12.42804,-22.85153 12.42804,-22.85153 l 2.27179,2.00451 c 0,0 -14.69983,20.84702 -16.97162,39.02136 -1.14587,9.16698 -2.80743,18.29909 -3.20722,27.52875 -0.39342,9.08258 -1.12627,18.37722 0.80182,27.26151 0.90186,4.15561 10.80311,26.8789 10.80311,26.8789 z"
         id="path1453"
         sodipodi:nodetypes="csssscccccccccccccsscsscssccscssccsccccsccsscaccascsccssasaccssscsaccssscc" />
    </g>
  </g>
</svg>
