<?xml version="1.0" encoding="UTF-8" standalone="no"?>
<svg
   xmlns:dc="http://purl.org/dc/elements/1.1/"
   xmlns:cc="http://creativecommons.org/ns#"
   xmlns:rdf="http://www.w3.org/1999/02/22-rdf-syntax-ns#"
   xmlns:svg="http://www.w3.org/2000/svg"
   xmlns="http://www.w3.org/2000/svg"
   xmlns:sodipodi="http://sodipodi.sourceforge.net/DTD/sodipodi-0.dtd"
   xmlns:inkscape="http://www.inkscape.org/namespaces/inkscape"
   width="79.237862mm"
   height="15.443336mm"
   viewBox="0 0 79.237862 15.443336"
   version="1.1"
   id="svg1284"
   inkscape:version="1.0.1 (3bc2e813f5, 2020-09-07)"
   sodipodi:docname="tomato.svg">
  <style
     id="style1286"></style>
  <defs
     id="defs1278" />
  <sodipodi:namedview
     id="base"
     pagecolor="#ffffff"
     bordercolor="#666666"
     borderopacity="1.0"
     inkscape:pageopacity="0.0"
     inkscape:pageshadow="2"
     inkscape:zoom="0.35"
     inkscape:cx="164.02656"
     inkscape:cy="274.89854"
     inkscape:document-units="mm"
     inkscape:current-layer="layer1"
     inkscape:document-rotation="0"
     showgrid="false"
     fit-margin-top="0"
     fit-margin-left="0"
     fit-margin-right="0"
     fit-margin-bottom="0"
     inkscape:window-width="1560"
     inkscape:window-height="1040"
     inkscape:window-x="234"
     inkscape:window-y="0"
     inkscape:window-maximized="0" />
  <metadata
     id="metadata1281">
    <rdf:RDF>
      <cc:Work
         rdf:about="">
        <dc:format>image/svg+xml</dc:format>
        <dc:type
           rdf:resource="http://purl.org/dc/dcmitype/StillImage" />
        <dc:title></dc:title>
      </cc:Work>
    </rdf:RDF>
  </metadata>
  <g
     inkscape:label="Warstwa 1"
     inkscape:groupmode="layer"
     id="layer1"
     transform="translate(-62.43464,-75.433095)">
    <g
       id="g2294"
       transform="translate(-316.06031,-319.05067)">
      <path
         id="path990-2-1"
         style="fill:#ff0000;stroke:none;stroke-width:0.2583"
         d="m 418.05513,398.01276 c -7.28815,6.9e-4 -14.43251,0.21697 -20.6466,0.62427 h -18.91358 v 6.6305 0 1.18796 h 0.0316 c 0.84937,2.27191 18.31686,3.47162 39.57579,3.47161 21.25881,0 38.72609,-1.5807 39.57546,-3.85259 h 0.0316 v -0.16925 -0.005 -7.26348 h -18.91246 c -6.22803,-0.40821 -13.39019,-0.62426 -20.69464,-0.62428 h -0.0473 z"
         sodipodi:nodetypes="cccccccsccccccscc" />
      <ellipse
         style="fill:#ff5555;stroke:none;stroke-width:0.258337"
         id="path990-9"
         cx="418.11392"
         cy="-398.71991"
         rx="39.618893"
         ry="4.236145"
         transform="scale(1,-1)" />
      <path
         id="path1160"
         style="fill:#ff8080;stroke:none;stroke-width:0.418595"
         d="m 418.43278,394.95188 c -20.54096,-3e-5 -37.19278,1.69348 -37.19244,3.78251 2.7e-4,2.08898 16.65192,3.78242 37.19244,3.78239 20.54014,-3e-5 37.19115,-1.69345 37.19142,-3.78239 3.4e-4,-2.08899 -16.65086,-3.78248 -37.19142,-3.78251 z m 0,0.67065 c 0.7198,2e-5 -4.02806,0.0356 -3.31013,0.0409 -5.18622,0.64004 0.82808,1.87043 -7.96092,2.45532 -4.56578,0.30384 -13.50031,0.64977 -18.6008,0.91131 -0.1315,-0.11595 -0.19735,-0.23256 -0.19777,-0.34928 -4.2e-4,-1.68898 13.46231,-3.0582 30.0697,-3.05822 z m 5.15921,0.10108 c 10.09834,0.52124 24.91047,1.80543 24.91056,2.95714 -7e-5,0.68046 -2.23159,1.34148 -6.34139,1.87844 -1.3995,-0.7414 -13.88561,-1.25101 -16.95147,-2.14669 -2.91817,-0.85254 -3.56102,-1.98528 -1.6177,-2.68889 z m -9.8665,4.13754 c 0.76323,10e-4 1.53279,0.007 2.30723,0.017 7.61637,0.10262 13.96908,1.03932 18.89152,1.35966 -4.8997,0.32686 -10.6317,0.50101 -16.49146,0.50104 -10.64793,-2e-5 -20.50179,-0.57272 -25.90708,-1.50572 5.80811,0.0661 13.17288,-0.38469 21.19979,-0.372 z"
         sodipodi:nodetypes="sssssccscccccscscsccscss" />
      <ellipse
         style="fill:#ffeeaa;stroke:none;stroke-width:0.431612"
         id="path1184-0"
         cx="174.76862"
         cy="-710.89032"
         rx="1.3111329"
         ry="0.41310963"
         transform="matrix(-0.98394417,0.17847652,-0.85632716,-0.51643373,0,0)"
         inkscape:transform-center-x="0.31237747"
         inkscape:transform-center-y="-0.16306133" />
      <ellipse
         style="fill:#ffeeaa;stroke:none;stroke-width:0.442743"
         id="path1184-79"
         cx="253.6582"
         cy="-770.49493"
         rx="1.2564436"
         ry="0.45361239"
         transform="matrix(-0.97692752,0.21357111,-0.89428899,-0.4474899,0,0)"
         inkscape:transform-center-x="0.32472566"
         inkscape:transform-center-y="-0.13683576" />
      <ellipse
         style="fill:#ffeeaa;stroke:none;stroke-width:0.425408"
         id="path1184"
         cx="809.02045"
         cy="481.67664"
         rx="1.333894"
         ry="0.39447251"
         transform="matrix(0.98660022,0.16315636,-0.83403795,0.55170707,0,0)"
         inkscape:transform-center-x="-0.043719429"
         inkscape:transform-center-y="0.34966243" />
      <ellipse
         style="fill:#ffeeaa;stroke:none;stroke-width:0.487522"
         id="path1184-2"
         cx="776.29285"
         cy="445.91925"
         rx="1.5102832"
         ry="0.45756832"
         transform="matrix(0.98425474,0.17675577,-0.81217573,0.58341288,0,0)"
         inkscape:transform-center-x="-0.049388914"
         inkscape:transform-center-y="0.42890337" />
      <ellipse
         style="fill:#ffeeaa;stroke:none;stroke-width:0.425409"
         id="path1184-6"
         cx="816.32776"
         cy="478.08295"
         rx="1.333894"
         ry="0.39447254"
         transform="matrix(0.98660022,0.16315636,-0.83403797,0.55170705,0,0)"
         inkscape:transform-center-x="-0.043719429"
         inkscape:transform-center-y="0.34966243" />
      <ellipse
         style="fill:#ffeeaa;stroke:none;stroke-width:0.438953"
         id="path1184-4"
         cx="487.095"
         cy="-854.92474"
         rx="0.87682509"
         ry="0.63892204"
         transform="matrix(-0.88145462,0.47226873,-0.9797867,-0.20004505,0,0)"
         inkscape:transform-center-x="0.35218955"
         inkscape:transform-center-y="0.012349776" />
      <ellipse
         style="fill:#ffeeaa;stroke:none;stroke-width:0.425409"
         id="path1184-7"
         cx="473.55261"
         cy="-832.84155"
         rx="0.78894502"
         ry="0.66694701"
         transform="matrix(-0.83403793,0.55170711,-0.98660023,-0.16315634,0,0)"
         inkscape:transform-center-x="0.34965459"
         inkscape:transform-center-y="0.043694739" />
      <ellipse
         style="fill:#ffeeaa;stroke:none;stroke-width:0.37322"
         id="path1184-1"
         cx="420.30191"
         cy="-644.2431"
         rx="0.56063777"
         ry="0.72239059"
         transform="matrix(-0.52614688,0.85039371,-0.99771742,-0.0675274,0,0)"
         inkscape:transform-center-x="-1.4108408"
         inkscape:transform-center-y="-0.96977421" />
      <ellipse
         style="fill:#ffeeaa;stroke:none;stroke-width:0.425409"
         id="path1184-5"
         cx="481.69165"
         cy="-829.67816"
         rx="0.78894502"
         ry="0.66694701"
         transform="matrix(-0.83403793,0.55170711,-0.98660023,-0.16315634,0,0)"
         inkscape:transform-center-x="0.34965458"
         inkscape:transform-center-y="0.043694485" />
      <ellipse
         style="fill:#ffeeaa;stroke:none;stroke-width:0.441388"
         id="path1184-68"
         cx="266.57443"
         cy="-756.9231"
         rx="1.2645352"
         ry="0.44795597"
         transform="matrix(-0.97802665,0.2084799,-0.88968659,-0.45657177,0,0)"
         inkscape:transform-center-x="0.32313254"
         inkscape:transform-center-y="-0.14056538" />
      <ellipse
         style="fill:#ffeeaa;stroke:none;stroke-width:0.45095"
         id="path1184-73"
         cx="336.29721"
         cy="-818.92676"
         rx="1.1873755"
         ry="0.49795753"
         transform="matrix(-0.96655132,0.2564733,-0.92451771,-0.3811391,0,0)"
         inkscape:transform-center-x="-2.451612"
         inkscape:transform-center-y="-1.0040543" />
    </g>
  </g>
</svg>
